<svg xmlns="http://www.w3.org/2000/svg" viewBox="0 0 79.76 218.68"><defs><style>.cls-1{fill:#fff;}</style></defs><title>资源 7</title><g id="图层_2" data-name="图层 2"><g id="图层_1-2" data-name="图层 1"><path class="cls-1" d="M79.71,173q-.08-61.38-.13-122.74c0-14.4-.08-28.8.07-43.2a5.6,5.6,0,0,0-3.11-5.54A13,13,0,0,0,67.89.22c-2.71.49-4.23,2.34-5.47,4.61C59.59,10,59.1,15.64,59.05,21.29,58.9,39.38,59,57.47,59,75.56c0,6.5-2.94,10-9.08,10.3-6.74.36-13.52.32-20.27,0C24.23,85.62,21,82.26,21,77.11c.21-13.51-.54-27-.65-40.51,0-5.57-.05-11.14,0-16.7a28.65,28.65,0,0,0-.75-8.28C18.31,7,17.57,1.89,11.88.21,8.67-.24,5.56,0,2.73,1.75.83,3-.46,4.43.16,6.88a2.33,2.33,0,0,0,1.71.31c3.92-.5,4.62-.12,5.83,3.57A36.77,36.77,0,0,1,9.48,22.47q-.06,84.92-.06,169.82c0,2.36.56,4.74,0,7.11,0,2.48,0,5,0,7.44,0,3.06-.36,6.17,1.06,9.07a6.34,6.34,0,0,0,5.26,2.77q24.07-.13,48.16,0a5.63,5.63,0,0,0,4.44-1.9A40.18,40.18,0,0,0,77.58,201c.62-2,1.14-4,1.71-6C80,187.68,79.72,180.33,79.71,173ZM52.84,141a2.47,2.47,0,0,1,2.58,2.32,2.35,2.35,0,1,1-4.7,0A2,2,0,0,1,52.84,141ZM37,141a2,2,0,0,1,2.37,2,2.36,2.36,0,1,1-4.69.53A2.44,2.44,0,0,1,37,141Zm-9.45,0a2,2,0,0,1,2.29,2.09,2.49,2.49,0,0,1-2.28,2.6,2.56,2.56,0,0,1-2.38-2.53A2.39,2.39,0,0,1,27.57,141Zm30.59,26.43c-.1,3.57-1.84,5.26-5.38,5.3-4.37.06-8.74,0-13.11,0-4.17,0-8.34,0-12.51,0-3.91,0-5.63-1.75-5.67-5.62,0-3.48-.06-7,0-10.43s1.9-5.34,5.38-5.37q13-.09,25.91,0c3.49,0,5.28,1.85,5.38,5.38S58.26,163.82,58.16,167.39Z"/></g></g></svg>